<?xml version="1.0" standalone="no"?>
<!DOCTYPE svg PUBLIC "-//W3C//DTD SVG 20010904//EN"
 "http://www.w3.org/TR/2001/REC-SVG-20010904/DTD/svg10.dtd">
<svg version="1.0" xmlns="http://www.w3.org/2000/svg"
 width="120.000000pt" height="120.000000pt" viewBox="0 0 120.000000 120.000000"
 preserveAspectRatio="xMidYMid meet">
<metadata>
Created by potrace 1.11, written by Peter Selinger 2001-2013
</metadata>
<g transform="translate(0.000000,120.000000) scale(0.100000,-0.100000)"
fill="#000000" stroke="none">
<path d="M255 1032 c-50 -20 -97 -41 -106 -47 -23 -15 -129 -150 -129 -165 0
-15 569 -725 581 -725 8 0 589 711 589 721 0 12 -114 154 -133 167 -12 8 -63
30 -113 51 l-91 36 -254 -1 -254 0 -90 -37z m58 -114 c19 -7 31 -7 41 1 10 9
15 8 20 -4 5 -13 39 -15 243 -14 l238 0 95 39 c52 21 96 37 98 35 2 -2 -3 -16
-11 -32 -9 -16 -38 -41 -67 -57 -50 -27 -54 -28 -85 -13 -32 15 -34 15 -83
-19 l-51 -34 -148 0 c-144 0 -150 1 -187 26 -27 19 -41 23 -46 15 -5 -9 -10
-8 -20 3 -11 14 -15 14 -41 -1 -27 -16 -30 -16 -89 12 -35 17 -60 35 -60 44 0
9 -3 26 -6 39 l-7 23 69 -27 c38 -14 81 -30 97 -36z m595 -236 c-4 -19 -19
-24 -37 -13 -12 8 -12 12 -2 25 15 18 43 10 39 -12z"/>
</g>
</svg>
